<svg width="21" height="22" viewBox="0 0 21 22" fill="none" xmlns="http://www.w3.org/2000/svg">
<path d="M21 20.9146C20.9557 20.8866 19.3126 19.8152 17.1604 17.9088C17.8501 16.567 18.8174 13.4964 15.6556 10.2394C12.1636 6.64271 6.83485 0.97947 6.78137 0.9217L5.91368 0L5.59464 1.1983C5.48399 1.61757 2.94179 11.5392 9.29222 18.048C10.5112 19.2997 11.8602 19.9316 13.2996 19.9316C14.6864 19.9316 15.7634 19.3294 16.2909 18.9671C18.4117 20.8201 20.0456 21.8818 20.2291 22L21 20.9146ZM16.112 16.9495C12.9031 13.9104 9.02205 9.2809 7.45173 3.60364C9.32449 5.58534 12.3665 8.79072 14.6367 11.1313C17 13.5629 16.6072 15.7757 16.112 16.9495ZM8.56746 14.8864C8.02896 13.9936 7.60941 13.0719 7.29774 12.137H10.0797C10.762 13.1095 11.4803 14.0216 12.206 14.8645H8.67258C8.63661 14.8671 8.60158 14.882 8.56746 14.8864ZM9.20462 10.8258H6.92429C6.41991 8.72858 6.35536 6.68998 6.44849 5.05228C7.1373 7.13989 8.09996 9.0717 9.20462 10.8258ZM13.2978 18.6213C12.2595 18.6213 11.2526 18.1294 10.3056 17.1578C9.99762 16.8418 9.71454 16.5144 9.45174 16.1801H13.2876C13.3181 16.1801 13.3439 16.1669 13.3706 16.1634C14.0133 16.8436 14.6514 17.4729 15.2628 18.0419C14.8367 18.2992 14.136 18.6213 13.2978 18.6213Z" fill="#1B1A1A"/>
</svg>
