<svg width="613" height="656" viewBox="0 0 613 656" fill="none" xmlns="http://www.w3.org/2000/svg">
<g clip-path="url(#clip0_125_2460)">
<path d="M270.589 1.11597L60.0845 124.981V316.302V527.826L270.589 651.685L613 441.845V208.264L270.589 1.11597Z" stroke="#82C5E0" stroke-width="3" stroke-miterlimit="10"/>
<path d="M79.6339 205.734H0V285.304H79.6339V205.734Z" fill="#498DC9"/>
<path d="M473.797 506.644L405.43 547.447L446.266 615.758L514.633 574.955L473.797 506.644Z" fill="#51A493"/>
<path d="M486.726 180.052L428.09 278.08L329.861 219.417L388.571 121.268L271.252 50.4105L99.4341 151.502V205.734H179.183V285.304H99.4341V496.801L271.252 597.899L392.091 525.195L351.055 456.542L419.425 415.743L460.312 484.146L570.536 417.827V230.476L486.726 180.052ZM159.275 403.751H99.5492V344.074H159.275V403.751ZM373.665 343.073L303.623 385.218L265.295 362.668V285.642L303.623 263.091L373.665 305.236V343.08V343.073Z" fill="url(#paint0_linear_125_2460)"/>
<path d="M447.311 23.132L388.592 121.281L486.821 179.953L545.54 81.8034L447.311 23.132Z" fill="#DA3832"/>
<path d="M129.409 344.074H69.6831V403.751H129.409V344.074Z" fill="#202B34"/>
<path d="M105.039 497.301C105.039 500.392 102.528 502.902 99.4341 502.902C96.3405 502.902 93.8291 500.392 93.8291 497.301C93.8291 494.21 96.3405 491.701 99.4341 491.701C102.528 491.701 105.039 494.21 105.039 497.301Z" fill="white"/>
<path d="M105.039 497.301H104.024C104.024 499.831 101.966 501.88 99.4343 501.887C96.9026 501.887 94.8515 499.831 94.8448 497.301C94.8448 494.771 96.9026 492.722 99.4343 492.715C101.966 492.715 104.017 494.771 104.024 497.301H106.055C106.055 493.649 103.09 490.686 99.4343 490.686C95.7789 490.686 92.814 493.649 92.814 497.301C92.814 500.954 95.7789 503.916 99.4343 503.916C103.09 503.916 106.055 500.954 106.055 497.301H105.039Z" fill="url(#paint1_linear_125_2460)"/>
<path d="M271.252 603.506C274.348 603.506 276.857 600.999 276.857 597.906C276.857 594.813 274.348 592.305 271.252 592.305C268.157 592.305 265.647 594.813 265.647 597.906C265.647 600.999 268.157 603.506 271.252 603.506Z" fill="white"/>
<path d="M276.857 597.906H275.842C275.842 600.435 273.784 602.485 271.252 602.492C268.72 602.492 266.669 600.435 266.663 597.906C266.663 595.376 268.72 593.327 271.252 593.32C273.784 593.32 275.835 595.376 275.842 597.906H277.873C277.873 594.253 274.908 591.291 271.252 591.291C267.597 591.291 264.632 594.253 264.632 597.906C264.632 601.558 267.597 604.521 271.252 604.521C274.908 604.521 277.873 601.558 277.873 597.906H276.857Z" fill="url(#paint2_linear_125_2460)"/>
<path d="M271.252 56.4506C274.595 56.4506 277.304 53.7433 277.304 50.4038C277.304 47.0642 274.595 44.3569 271.252 44.3569C267.91 44.3569 265.201 47.0642 265.201 50.4038C265.201 53.7433 267.91 56.4506 271.252 56.4506Z" fill="white"/>
<path d="M277.304 50.4038H276.289C276.289 53.1837 274.034 55.4293 271.252 55.4361C268.47 55.4361 266.223 53.1837 266.216 50.4038C266.216 47.6239 268.47 45.3783 271.252 45.3715C274.034 45.3715 276.282 47.6239 276.289 50.4038H278.319C278.319 46.5079 275.158 43.3492 271.252 43.3424C267.353 43.3424 264.192 46.5011 264.185 50.4038C264.185 54.2997 267.346 57.4584 271.252 57.4652C275.151 57.4652 278.313 54.3065 278.319 50.4038H277.304Z" fill="url(#paint3_linear_125_2460)"/>
<path d="M99.4341 157.549C102.776 157.549 105.486 154.842 105.486 151.502C105.486 148.163 102.776 145.455 99.4341 145.455C96.0918 145.455 93.3823 148.163 93.3823 151.502C93.3823 154.842 96.0918 157.549 99.4341 157.549Z" fill="white"/>
<path d="M105.479 151.502H104.464C104.464 154.282 102.21 156.528 99.4275 156.534C96.6453 156.534 94.3979 154.282 94.3911 151.502C94.3911 148.722 96.6453 146.477 99.4275 146.47C102.21 146.47 104.457 148.722 104.464 151.502H106.495C106.495 147.606 103.333 144.448 99.4275 144.441C95.5284 144.441 92.3671 147.599 92.3604 151.502C92.3604 155.398 95.5216 158.557 99.4275 158.564C103.327 158.564 106.488 155.405 106.495 151.502H105.479Z" fill="url(#paint4_linear_125_2460)"/>
<path d="M570.536 236.523C573.878 236.523 576.588 233.816 576.588 230.476C576.588 227.137 573.878 224.429 570.536 224.429C567.194 224.429 564.484 227.137 564.484 230.476C564.484 233.816 567.194 236.523 570.536 236.523Z" fill="white"/>
<path d="M576.588 230.476H575.573C575.573 233.256 573.319 235.502 570.536 235.508C567.754 235.508 565.507 233.256 565.5 230.476C565.5 227.696 567.754 225.451 570.536 225.444C573.319 225.444 575.566 227.696 575.573 230.476H577.604C577.604 226.58 574.442 223.422 570.536 223.415C566.637 223.415 563.476 226.573 563.469 230.476C563.469 234.372 566.63 237.531 570.536 237.538C574.435 237.538 577.597 234.379 577.604 230.476H576.588Z" fill="url(#paint5_linear_125_2460)"/>
<path d="M570.536 421.587C573.878 421.587 576.588 418.88 576.588 415.54C576.588 412.201 573.878 409.494 570.536 409.494C567.194 409.494 564.484 412.201 564.484 415.54C564.484 418.88 567.194 421.587 570.536 421.587Z" fill="white"/>
<path d="M576.588 415.54H575.573C575.573 418.32 573.319 420.566 570.536 420.573C567.754 420.573 565.507 418.32 565.5 415.54C565.5 412.76 567.754 410.515 570.536 410.508C573.319 410.508 575.566 412.76 575.573 415.54H577.604C577.604 411.644 574.442 408.486 570.536 408.479C566.637 408.479 563.476 411.638 563.469 415.54C563.469 419.436 566.63 422.595 570.536 422.602C574.435 422.602 577.597 419.443 577.604 415.54H576.588Z" fill="url(#paint6_linear_125_2460)"/>
</g>
<defs>
<linearGradient id="paint0_linear_125_2460" x1="399.856" y1="897.827" x2="226.717" y2="384.125" gradientUnits="userSpaceOnUse">
<stop stop-color="#498DC9"/>
<stop offset="1" stop-color="#82C5E0"/>
</linearGradient>
<linearGradient id="paint1_linear_125_2460" x1="98.6986" y1="520.413" x2="94.2611" y2="507.246" gradientUnits="userSpaceOnUse">
<stop stop-color="#498DC9"/>
<stop offset="1" stop-color="#82C5E0"/>
</linearGradient>
<linearGradient id="paint2_linear_125_2460" x1="270.523" y1="621.024" x2="266.086" y2="607.858" gradientUnits="userSpaceOnUse">
<stop stop-color="#498DC9"/>
<stop offset="1" stop-color="#82C5E0"/>
</linearGradient>
<linearGradient id="paint3_linear_125_2460" x1="270.326" y1="53.8174" x2="265.536" y2="39.6063" gradientUnits="userSpaceOnUse">
<stop stop-color="#498DC9"/>
<stop offset="1" stop-color="#82C5E0"/>
</linearGradient>
<linearGradient id="paint4_linear_125_2460" x1="98.5081" y1="154.923" x2="93.7184" y2="140.711" gradientUnits="userSpaceOnUse">
<stop stop-color="#498DC9"/>
<stop offset="1" stop-color="#82C5E0"/>
</linearGradient>
<linearGradient id="paint5_linear_125_2460" x1="569.61" y1="233.89" x2="564.821" y2="219.679" gradientUnits="userSpaceOnUse">
<stop stop-color="#498DC9"/>
<stop offset="1" stop-color="#82C5E0"/>
</linearGradient>
<linearGradient id="paint6_linear_125_2460" x1="569.61" y1="418.961" x2="564.821" y2="404.75" gradientUnits="userSpaceOnUse">
<stop stop-color="#498DC9"/>
<stop offset="1" stop-color="#82C5E0"/>
</linearGradient>
<clipPath id="clip0_125_2460">
<rect width="613" height="656" fill="white"/>
</clipPath>
</defs>
</svg>
