<svg width="20" height="19" viewBox="0 0 20 19" fill="none" xmlns="http://www.w3.org/2000/svg">
<path d="M19.6374 10.295C20.3757 7.8763 19.9791 5.25223 18.5163 2.90814C18.3278 2.60057 17.9538 2.47591 17.6279 2.61385C15.8834 3.33833 14.4982 4.49505 13.5617 5.9481C13.0767 5.08772 12.4916 4.29682 11.8074 3.5846C9.55635 1.23949 6.49246 0 2.94852 0C2.23876 0 1.50935 0.0521136 0.780932 0.154297C0.454026 0.20028 0.194857 0.469022 0.150681 0.811337C-0.442266 5.38814 0.726938 9.46424 3.4433 12.2906C5.6963 14.6337 8.76117 15.8752 12.3081 15.8752C12.8971 15.8752 13.4989 15.8292 14.1006 15.7608L17.2146 19L18.2562 17.9148L15.6144 15.1671C17.5876 14.0758 19.0023 12.3785 19.6374 10.295ZM6.7212 8.0776L12.7194 14.3241C9.42676 14.4242 6.53958 13.3462 4.4839 11.2075C2.2152 8.84602 1.18147 5.45353 1.54371 1.60632C5.2457 1.23029 8.50985 2.3165 10.7678 4.66979C12.8323 6.81973 13.8601 9.8229 13.7629 13.243L11.2596 10.6373L7.7618 6.9965C7.47416 6.69711 7.00785 6.69711 6.72022 6.9965C6.43258 7.2959 6.43356 7.77821 6.7212 8.0776ZM15.2237 13.6405C15.3307 11.4691 15.0244 9.43767 14.3333 7.62493C14.9783 6.21276 16.1062 5.05808 17.6043 4.30192C18.5546 6.1024 18.7804 8.04388 18.2365 9.83005C17.7516 11.418 16.6982 12.7361 15.2237 13.6405Z" fill="#1B1A1A"/>
</svg>
