<svg width="549" height="642" viewBox="0 0 549 642" fill="none" xmlns="http://www.w3.org/2000/svg">
<path d="M285.995 162.235L140.366 248.083V541.296L285.995 627.144L539.665 474.238V315.149L285.995 162.235ZM408.182 421.88L316.238 477.306L265.922 447.649V346.352L316.238 316.695L408.182 372.121V421.888V421.88Z" fill="#438FD5"/>
<path d="M285.995 162.235L140.366 248.083V541.296L285.995 627.144L539.665 474.238V315.149L285.995 162.235ZM408.182 421.88L316.238 477.306L265.922 447.649V346.352L316.238 316.695L408.182 372.121V421.888V421.88Z" stroke="white" stroke-width="1.52" stroke-miterlimit="10"/>
<path d="M145.115 253.61C145.115 256.233 142.986 258.365 140.366 258.365C137.745 258.365 135.616 256.233 135.616 253.61C135.616 250.987 137.745 248.856 140.366 248.856C142.986 248.856 145.115 250.987 145.115 253.61Z" fill="#2B78BF"/>
<path d="M145.115 253.61C145.115 256.233 142.986 258.365 140.366 258.365C137.745 258.365 135.616 256.233 135.616 253.61C135.616 250.987 137.745 248.856 140.366 248.856C142.986 248.856 145.115 250.987 145.115 253.61Z" stroke="white" stroke-width="1.52" stroke-miterlimit="10"/>
<path d="M291.142 166.989C291.142 169.612 289.013 171.743 286.393 171.743C283.773 171.743 281.644 169.612 281.644 166.989C281.644 164.366 283.773 162.235 286.393 162.235C289.013 162.235 291.142 164.366 291.142 166.989Z" fill="#2B78BF"/>
<path d="M291.142 166.989C291.142 169.612 289.013 171.743 286.393 171.743C283.773 171.743 281.644 169.612 281.644 166.989C281.644 164.366 283.773 162.235 286.393 162.235C289.013 162.235 291.142 164.366 291.142 166.989Z" stroke="white" stroke-width="1.52" stroke-miterlimit="10"/>
<path d="M255.433 119.565L109.803 205.413V498.626L257.499 584.474L509.103 429.374V272.471L255.433 119.565ZM377.62 379.209L285.675 434.636L235.359 404.979V303.681L285.675 274.024L377.62 329.451V379.217V379.209Z" fill="black"/>
<path d="M255.433 119.565L109.803 205.413V498.626L257.499 584.474L509.103 429.374V272.471L255.433 119.565ZM377.62 379.209L285.675 434.636L235.359 404.979V303.681L285.675 274.024L377.62 329.451V379.217V379.209Z" stroke="white" stroke-width="1.52" stroke-miterlimit="10"/>
<path d="M224.862 72.1399L79.2329 157.988V451.201L227.709 539.883L480.669 385.767L478.533 225.054L224.862 72.1399ZM347.05 331.785L255.105 387.211L204.789 357.554V256.257L255.105 226.6L347.05 282.026V331.792V331.785Z" fill="#DA3832"/>
<path d="M224.862 72.1399L79.2329 157.988V451.201L227.709 539.883L480.669 385.767L478.533 225.054L224.862 72.1399ZM347.05 331.785L255.105 387.211L204.789 357.554V256.257L255.105 226.6L347.05 282.026V331.792V331.785Z" stroke="white" stroke-width="1.52" stroke-miterlimit="10"/>
<path d="M447.97 336.719L539.665 474.23" stroke="white" stroke-width="1.52" stroke-miterlimit="10"/>
<path d="M544.415 474.23C544.415 476.853 542.286 478.984 539.665 478.984C537.045 478.984 534.916 476.853 534.916 474.23C534.916 471.607 537.045 469.476 539.665 469.476C542.286 469.476 544.415 471.607 544.415 474.23Z" fill="#2B78BF"/>
<path d="M544.415 474.23C544.415 476.853 542.286 478.984 539.665 478.984C537.045 478.984 534.916 476.853 534.916 474.23C534.916 471.607 537.045 469.476 539.665 469.476C542.286 469.476 544.415 471.607 544.415 474.23Z" stroke="white" stroke-width="1.52" stroke-miterlimit="10"/>
<path d="M447.97 180.018L539.665 315.141" stroke="white" stroke-width="1.52" stroke-miterlimit="10"/>
<path d="M194.698 490.468L285.995 627.136" stroke="white" stroke-width="1.52" stroke-miterlimit="10"/>
<path d="M49.3257 404.198L140.366 541.71" stroke="white" stroke-width="1.52" stroke-miterlimit="10"/>
<path d="M194.3 24.7231L48.6704 110.571V403.784L194.3 489.632L447.97 336.726V177.629L194.3 24.7231ZM316.487 284.368L224.543 339.794L174.227 310.137V208.84L224.543 179.183L316.487 234.609V284.376V284.368Z" fill="url(#paint0_linear_125_2360)"/>
<path d="M194.3 24.7231L48.6704 110.571V403.784L194.3 489.632L447.97 336.726V177.629L194.3 24.7231ZM316.487 284.368L224.543 339.794L174.227 310.137V208.84L224.543 179.183L316.487 234.609V284.376V284.368Z" stroke="white" stroke-width="1.52" stroke-miterlimit="10"/>
<path d="M53.42 404.198C53.42 406.821 51.291 408.952 48.6707 408.952C46.0504 408.952 43.9214 406.821 43.9214 404.198C43.9214 401.575 46.0504 399.444 48.6707 399.444C51.291 399.444 53.42 401.575 53.42 404.198Z" fill="#90C4DD"/>
<path d="M53.42 404.198C53.42 406.821 51.291 408.952 48.6707 408.952C46.0504 408.952 43.9214 406.821 43.9214 404.198C43.9214 401.575 46.0504 399.444 48.6707 399.444C51.291 399.444 53.42 401.575 53.42 404.198Z" stroke="white" stroke-width="1.52" stroke-miterlimit="10"/>
<path d="M53.42 111.336C53.42 113.959 51.291 116.091 48.6707 116.091C46.0504 116.091 43.9214 113.959 43.9214 111.336C43.9214 108.713 46.0504 106.582 48.6707 106.582C51.291 106.582 53.42 108.713 53.42 111.336Z" fill="#90C4DD"/>
<path d="M53.42 111.336C53.42 113.959 51.291 116.091 48.6707 116.091C46.0504 116.091 43.9214 113.959 43.9214 111.336C43.9214 108.713 46.0504 106.582 48.6707 106.582C51.291 106.582 53.42 108.713 53.42 111.336Z" stroke="white" stroke-width="1.52" stroke-miterlimit="10"/>
<path d="M199.447 489.625C199.447 492.248 197.318 494.379 194.698 494.379C192.077 494.379 189.948 492.248 189.948 489.625C189.948 487.002 192.077 484.87 194.698 484.87C197.318 484.87 199.447 487.002 199.447 489.625Z" fill="#90C4DD"/>
<path d="M199.447 489.625C199.447 492.248 197.318 494.379 194.698 494.379C192.077 494.379 189.948 492.248 189.948 489.625C189.948 487.002 192.077 484.87 194.698 484.87C197.318 484.87 199.447 487.002 199.447 489.625Z" stroke="white" stroke-width="1.52" stroke-miterlimit="10"/>
<path d="M452.719 177.692C452.719 180.315 450.59 182.446 447.97 182.446C445.35 182.446 443.221 180.315 443.221 177.692C443.221 175.069 445.35 172.938 447.97 172.938C450.59 172.938 452.719 175.069 452.719 177.692Z" fill="#90C4DD"/>
<path d="M452.719 177.692C452.719 180.315 450.59 182.446 447.97 182.446C445.35 182.446 443.221 180.315 443.221 177.692C443.221 175.069 445.35 172.938 447.97 172.938C450.59 172.938 452.719 175.069 452.719 177.692Z" stroke="white" stroke-width="1.52" stroke-miterlimit="10"/>
<path d="M199.447 24.7232C199.447 27.3462 197.318 29.4773 194.698 29.4773C192.077 29.4773 189.948 27.3462 189.948 24.7232C189.948 22.1002 192.077 19.969 194.698 19.969C197.318 19.969 199.447 22.1002 199.447 24.7232Z" fill="#90C4DD"/>
<path d="M199.447 24.7232C199.447 27.3462 197.318 29.4773 194.698 29.4773C192.077 29.4773 189.948 27.3462 189.948 24.7232C189.948 22.1002 192.077 19.969 194.698 19.969C197.318 19.969 199.447 22.1002 199.447 24.7232V24.7232Z" stroke="white" stroke-width="1.52" stroke-miterlimit="10"/>
<path d="M452.719 336.945C452.719 339.568 450.59 341.699 447.97 341.699C445.35 341.699 443.221 339.568 443.221 336.945C443.221 334.322 445.35 332.191 447.97 332.191C450.59 332.191 452.719 334.322 452.719 336.945Z" fill="#90C4DD"/>
<path d="M452.719 336.945C452.719 339.568 450.59 341.699 447.97 341.699C445.35 341.699 443.221 339.568 443.221 336.945C443.221 334.322 445.35 332.191 447.97 332.191C450.59 332.191 452.719 334.322 452.719 336.945Z" stroke="white" stroke-width="1.52" stroke-miterlimit="10"/>
<path d="M388.826 461.349L404.821 496.291L411.66 479.398L432.459 473.114L388.826 461.349Z" fill="black"/>
<path d="M388.826 461.349L404.821 496.291L411.66 479.398L432.459 473.114L388.826 461.349Z" stroke="white" stroke-width="1.28" stroke-miterlimit="10"/>
<path d="M497.608 484.332H416.94V514.644H497.608V484.332Z" fill="#2B78BF"/>
<path d="M431.11 504.847V494.91H432.506L436.078 501.842L439.626 494.91H441.03V504.847H439.836V497.041L436.514 503.427H435.625L432.303 497.056V504.847H431.11Z" fill="white"/>
<path d="M445.397 505.019C444.812 505.019 444.321 504.917 443.938 504.722C443.548 504.527 443.26 504.262 443.073 503.926C442.886 503.598 442.792 503.239 442.792 502.849C442.792 502.131 443.065 501.576 443.611 501.186C444.157 500.796 444.905 500.6 445.849 500.6H447.752V500.515C447.752 499.898 447.588 499.43 447.268 499.117C446.949 498.805 446.52 498.641 445.982 498.641C445.521 498.641 445.116 498.758 444.781 498.992C444.445 499.227 444.235 499.562 444.149 500.007H442.932C442.979 499.5 443.151 499.063 443.447 498.711C443.743 498.36 444.118 498.095 444.562 497.907C445.007 497.72 445.483 497.634 445.982 497.634C446.964 497.634 447.705 497.899 448.204 498.422C448.703 498.945 448.953 499.648 448.953 500.515V504.847H447.892L447.822 503.583C447.627 503.981 447.331 504.316 446.949 504.597C446.566 504.878 446.052 505.019 445.412 505.019H445.397ZM445.584 504.012C446.036 504.012 446.426 503.895 446.754 503.661C447.081 503.426 447.331 503.114 447.495 502.739C447.666 502.365 447.752 501.967 447.752 501.545V501.529H445.95C445.249 501.529 444.757 501.647 444.469 501.889C444.18 502.131 444.04 502.427 444.04 502.786C444.04 503.145 444.172 503.45 444.445 503.676C444.718 503.895 445.093 504.012 445.584 504.012Z" fill="white"/>
<path d="M450.731 504.847V497.806H451.807L451.909 499.156C452.127 498.696 452.454 498.321 452.899 498.048C453.343 497.775 453.889 497.634 454.544 497.634V498.883H454.217C453.804 498.883 453.414 498.953 453.071 499.102C452.72 499.25 452.439 499.5 452.236 499.843C452.026 500.195 451.924 500.679 451.924 501.295V504.847H450.731Z" fill="white"/>
<path d="M455.878 504.847V494.629H457.071V500.772L459.949 497.806H461.407L458.288 500.991L461.805 504.847H460.292L457.071 501.202V504.847H455.878Z" fill="white"/>
<path d="M465.681 505.019C465.01 505.019 464.417 504.863 463.895 504.558C463.372 504.254 462.967 503.825 462.671 503.27C462.374 502.716 462.226 502.076 462.226 501.326C462.226 500.577 462.374 499.945 462.663 499.39C462.951 498.836 463.365 498.407 463.887 498.095C464.41 497.79 465.018 497.634 465.712 497.634C466.406 497.634 466.983 497.79 467.474 498.095C467.974 498.399 468.348 498.805 468.613 499.312C468.878 499.812 469.011 500.351 469.011 500.928C469.011 501.03 469.011 501.139 469.011 501.241C469.011 501.342 469.011 501.467 469.011 501.6H463.411C463.443 502.138 463.567 502.583 463.786 502.942C464.004 503.302 464.285 503.567 464.62 503.746C464.956 503.926 465.314 504.02 465.689 504.02C466.18 504.02 466.593 503.903 466.921 503.676C467.248 503.45 467.49 503.145 467.646 502.755H468.824C468.636 503.411 468.27 503.949 467.74 504.379C467.209 504.808 466.523 505.027 465.689 505.027L465.681 505.019ZM465.681 498.641C465.112 498.641 464.612 498.813 464.168 499.156C463.731 499.5 463.474 500.007 463.411 500.671H467.833C467.802 500.038 467.584 499.539 467.178 499.18C466.773 498.821 466.273 498.641 465.673 498.641H465.681Z" fill="white"/>
<path d="M473.128 504.847C472.489 504.847 471.982 504.691 471.608 504.379C471.241 504.067 471.054 503.505 471.054 502.693V498.821H469.837V497.814H471.054L471.21 496.127H472.247V497.814H474.322V498.821H472.247V502.693C472.247 503.138 472.341 503.442 472.52 503.598C472.699 503.754 473.019 503.832 473.472 503.832H474.212V504.855H473.136L473.128 504.847Z" fill="white"/>
<path d="M478.798 505.019C478.127 505.019 477.535 504.863 477.012 504.558C476.49 504.254 476.084 503.825 475.788 503.27C475.491 502.716 475.343 502.076 475.343 501.326C475.343 500.577 475.491 499.945 475.78 499.39C476.069 498.836 476.482 498.407 477.004 498.095C477.527 497.79 478.135 497.634 478.829 497.634C479.523 497.634 480.1 497.79 480.592 498.095C481.091 498.399 481.465 498.805 481.73 499.312C481.995 499.812 482.128 500.351 482.128 500.928C482.128 501.03 482.128 501.139 482.128 501.241C482.128 501.342 482.128 501.467 482.128 501.6H476.529C476.56 502.138 476.685 502.583 476.903 502.942C477.121 503.302 477.402 503.567 477.737 503.746C478.073 503.926 478.431 504.02 478.806 504.02C479.297 504.02 479.71 503.903 480.038 503.676C480.365 503.45 480.607 503.145 480.763 502.755H481.941C481.754 503.411 481.387 503.949 480.857 504.379C480.326 504.808 479.64 505.027 478.806 505.027L478.798 505.019ZM478.798 498.641C478.229 498.641 477.73 498.813 477.285 499.156C476.848 499.5 476.591 500.007 476.529 500.671H480.95C480.919 500.038 480.701 499.539 480.295 499.18C479.89 498.821 479.391 498.641 478.79 498.641H478.798Z" fill="white"/>
<path d="M483.703 504.847V497.806H484.779L484.881 499.156C485.099 498.696 485.427 498.321 485.871 498.048C486.316 497.775 486.862 497.634 487.517 497.634V498.883H487.189C486.776 498.883 486.386 498.953 486.043 499.102C485.692 499.25 485.411 499.5 485.208 499.843C484.998 500.195 484.896 500.679 484.896 501.295V504.847H483.703Z" fill="white"/>
<path d="M117.578 275.632L101.575 310.574L94.744 293.689L73.9453 287.397L117.578 275.632Z" fill="#2B78BF"/>
<path d="M117.578 275.632L101.575 310.574L94.744 293.689L73.9453 287.397L117.578 275.632Z" fill="black" stroke="white" stroke-width="1.28" stroke-miterlimit="10"/>
<path d="M90.112 298.615H2.26953V328.927H90.112V298.615Z" fill="#DA3832"/>
<path d="M15.0356 319.138V309.2H18.0849C19.8317 309.2 21.1263 309.645 21.9529 310.535C22.7796 311.425 23.1929 312.643 23.1929 314.197C23.1929 315.75 22.7796 316.929 21.9529 317.811C21.1263 318.693 19.8395 319.138 18.0849 319.138H15.0356ZM16.2288 318.147H18.0615C19.0285 318.147 19.7927 317.991 20.3698 317.671C20.9391 317.35 21.3524 316.898 21.5942 316.304C21.836 315.711 21.9607 315.009 21.9607 314.197C21.9607 313.385 21.836 312.651 21.5942 312.05C21.3446 311.457 20.9391 310.996 20.3698 310.676C19.8005 310.356 19.0285 310.192 18.0615 310.192H16.2288V318.139V318.147Z" fill="white"/>
<path d="M28.0045 319.302C27.3339 319.302 26.7412 319.146 26.2187 318.841C25.6962 318.537 25.2907 318.108 24.9943 317.553C24.698 316.999 24.5498 316.359 24.5498 315.609C24.5498 314.86 24.698 314.228 24.9865 313.673C25.2751 313.119 25.6884 312.69 26.2109 312.378C26.7334 312.073 27.3417 311.917 28.0357 311.917C28.7298 311.917 29.3069 312.073 29.7982 312.378C30.2973 312.682 30.6716 313.088 30.9368 313.595C31.2019 314.095 31.3345 314.634 31.3345 315.211C31.3345 315.313 31.3345 315.422 31.3345 315.524C31.3345 315.625 31.3345 315.75 31.3345 315.883H25.7352C25.7664 316.421 25.8911 316.866 26.1095 317.225C26.3279 317.585 26.6086 317.85 26.9439 318.03C27.2793 318.209 27.638 318.303 28.0123 318.303C28.5037 318.303 28.917 318.186 29.2445 317.959C29.5721 317.733 29.8138 317.428 29.9698 317.038H31.1473C30.9602 317.694 30.5937 318.232 30.0634 318.662C29.5331 319.091 28.8468 319.31 28.0123 319.31L28.0045 319.302ZM28.0045 312.924C27.4353 312.924 26.9362 313.096 26.4916 313.439C26.0549 313.783 25.7976 314.29 25.7352 314.954H30.1569C30.1257 314.321 29.9074 313.822 29.5019 313.463C29.0963 313.104 28.5972 312.924 27.9968 312.924H28.0045Z" fill="white"/>
<path d="M34.6568 319.138L31.9897 312.097H33.2375L35.3509 317.983L37.4799 312.097H38.6965L36.0294 319.138H34.6568Z" fill="white"/>
<path d="M42.8214 319.302C42.1508 319.302 41.5581 319.146 41.0356 318.841C40.5131 318.537 40.1076 318.108 39.8112 317.553C39.5149 316.999 39.3667 316.359 39.3667 315.609C39.3667 314.86 39.5149 314.228 39.8034 313.673C40.092 313.119 40.5053 312.69 41.0278 312.378C41.5503 312.073 42.1586 311.917 42.8526 311.917C43.5467 311.917 44.1238 312.073 44.6151 312.378C45.1142 312.682 45.4885 313.088 45.7537 313.595C46.0188 314.095 46.1514 314.634 46.1514 315.211C46.1514 315.313 46.1514 315.422 46.1514 315.524C46.1514 315.625 46.1514 315.75 46.1514 315.883H40.5521C40.5833 316.421 40.708 316.866 40.9264 317.225C41.1448 317.585 41.4255 317.85 41.7608 318.03C42.0962 318.209 42.4549 318.303 42.8292 318.303C43.3205 318.303 43.7339 318.186 44.0614 317.959C44.3889 317.733 44.6307 317.428 44.7867 317.038H45.9642C45.7771 317.694 45.4106 318.232 44.8803 318.662C44.35 319.091 43.6637 319.31 42.8292 319.31L42.8214 319.302ZM42.8214 312.924C42.2522 312.924 41.753 313.096 41.3085 313.439C40.8718 313.783 40.6145 314.29 40.5521 314.954H44.9738C44.9426 314.321 44.7243 313.822 44.3188 313.463C43.9132 313.104 43.4141 312.924 42.8136 312.924H42.8214Z" fill="white"/>
<path d="M48.9202 308.912H47.7271V319.13H48.9202V308.912Z" fill="white"/>
<path d="M54.0826 319.302C53.4197 319.302 52.827 319.154 52.2967 318.849C51.7664 318.545 51.3531 318.115 51.0412 317.561C50.737 317.007 50.5811 316.359 50.5811 315.609C50.5811 314.86 50.737 314.212 51.049 313.658C51.3609 313.104 51.782 312.674 52.3201 312.37C52.8582 312.065 53.4509 311.917 54.1138 311.917C54.7767 311.917 55.3693 312.065 55.8996 312.37C56.4299 312.674 56.8511 313.104 57.1552 313.658C57.4593 314.212 57.6153 314.86 57.6153 315.609C57.6153 316.359 57.4593 317.007 57.1474 317.561C56.8355 318.115 56.4143 318.545 55.8762 318.849C55.3459 319.154 54.7455 319.302 54.0826 319.302ZM54.0826 318.279C54.4881 318.279 54.8702 318.178 55.2212 317.983C55.5721 317.787 55.8529 317.483 56.0712 317.085C56.2896 316.687 56.3987 316.195 56.3987 315.609C56.3987 315.024 56.2896 314.532 56.079 314.134C55.8685 313.736 55.5877 313.439 55.2368 313.236C54.8858 313.041 54.5115 312.94 54.1138 312.94C53.7161 312.94 53.3261 313.041 52.9752 313.236C52.6243 313.431 52.3435 313.736 52.1252 314.134C51.9068 314.532 51.7976 315.024 51.7976 315.609C51.7976 316.195 51.9068 316.687 52.1252 317.085C52.3435 317.483 52.6243 317.78 52.9674 317.983C53.3105 318.178 53.6849 318.279 54.0826 318.279Z" fill="white"/>
<path d="M59.2764 322.261V312.097H60.3526L60.4695 313.26C60.6957 312.916 61.0232 312.612 61.4444 312.339C61.8655 312.065 62.4036 311.925 63.0508 311.925C63.7527 311.925 64.361 312.089 64.8835 312.409C65.406 312.729 65.8037 313.174 66.0923 313.728C66.3808 314.29 66.5212 314.923 66.5212 315.633C66.5212 316.343 66.3808 316.976 66.0923 317.53C65.8037 318.084 65.3982 318.521 64.8757 318.834C64.3532 319.154 63.7371 319.31 63.0353 319.31C62.4582 319.31 61.9435 319.193 61.4989 318.958C61.0466 318.724 60.7035 318.389 60.4695 317.967V322.268H59.2764V322.261ZM62.9105 318.272C63.3862 318.272 63.7995 318.162 64.1582 317.936C64.517 317.717 64.7977 317.405 65.0083 317.007C65.2188 316.609 65.3202 316.148 65.3202 315.617C65.3202 315.086 65.2188 314.626 65.0083 314.228C64.7977 313.83 64.517 313.517 64.1582 313.299C63.7995 313.08 63.3862 312.963 62.9105 312.963C62.4348 312.963 62.0214 313.072 61.6627 313.299C61.304 313.525 61.0154 313.83 60.8127 314.228C60.6099 314.626 60.5007 315.086 60.5007 315.617C60.5007 316.148 60.6021 316.609 60.8127 317.007C61.0232 317.405 61.304 317.717 61.6627 317.936C62.0214 318.162 62.4348 318.272 62.9105 318.272Z" fill="white"/>
<path d="M71.3488 319.302C70.6781 319.302 70.0854 319.146 69.5629 318.841C69.0404 318.537 68.6349 318.108 68.3386 317.553C68.0422 316.999 67.894 316.359 67.894 315.609C67.894 314.86 68.0422 314.228 68.3308 313.673C68.6193 313.119 69.0326 312.69 69.5551 312.378C70.0776 312.073 70.6859 311.917 71.38 311.917C72.074 311.917 72.6511 312.073 73.1424 312.378C73.6416 312.682 74.0159 313.088 74.281 313.595C74.5462 314.095 74.6788 314.634 74.6788 315.211C74.6788 315.313 74.6788 315.422 74.6788 315.524C74.6788 315.625 74.6788 315.75 74.6788 315.883H69.0794C69.1106 316.421 69.2354 316.866 69.4537 317.225C69.6721 317.585 69.9529 317.85 70.2882 318.03C70.6235 318.209 70.9823 318.303 71.3566 318.303C71.8479 318.303 72.2612 318.186 72.5888 317.959C72.9163 317.733 73.158 317.428 73.314 317.038H74.4916C74.3044 317.694 73.9379 318.232 73.4076 318.662C72.8773 319.091 72.191 319.31 71.3566 319.31L71.3488 319.302ZM71.3488 312.924C70.7795 312.924 70.2804 313.096 69.8359 313.439C69.3992 313.783 69.1418 314.29 69.0794 314.954H73.5012C73.47 314.321 73.2516 313.822 72.8461 313.463C72.4406 313.104 71.9415 312.924 71.341 312.924H71.3488Z" fill="white"/>
<path d="M76.2539 319.138V312.097H77.3301L77.4315 313.447C77.6498 312.986 77.9774 312.612 78.4219 312.339C78.8664 312.065 79.4123 311.925 80.0674 311.925V313.174H79.7398C79.3265 313.174 78.9366 313.244 78.5935 313.392C78.2425 313.541 77.9618 313.791 77.759 314.134C77.5485 314.485 77.4471 314.969 77.4471 315.586V319.138H76.2539Z" fill="white"/>
<path d="M145.115 542.561C145.115 545.184 142.986 547.315 140.366 547.315C137.745 547.315 135.616 545.184 135.616 542.561C135.616 539.938 137.745 537.806 140.366 537.806C142.986 537.806 145.115 539.938 145.115 542.561Z" fill="#2B78BF"/>
<path d="M145.115 542.561C145.115 545.184 142.986 547.315 140.366 547.315C137.745 547.315 135.616 545.184 135.616 542.561C135.616 539.938 137.745 537.806 140.366 537.806C142.986 537.806 145.115 539.938 145.115 542.561Z" stroke="white" stroke-width="1.52" stroke-miterlimit="10"/>
<path d="M291.142 627.136C291.142 629.759 289.013 631.891 286.393 631.891C283.773 631.891 281.644 629.759 281.644 627.136C281.644 624.513 283.773 622.382 286.393 622.382C289.013 622.382 291.142 624.513 291.142 627.136Z" fill="#2B78BF"/>
<path d="M291.142 627.136C291.142 629.759 289.013 631.891 286.393 631.891C283.773 631.891 281.644 629.759 281.644 627.136C281.644 624.513 283.773 622.382 286.393 622.382C289.013 622.382 291.142 624.513 291.142 627.136Z" stroke="white" stroke-width="1.52" stroke-miterlimit="10"/>
<path d="M544.415 315.204C544.415 317.827 542.286 319.958 539.665 319.958C537.045 319.958 534.916 317.827 534.916 315.204C534.916 312.581 537.045 310.449 539.665 310.449C542.286 310.449 544.415 312.581 544.415 315.204Z" fill="#2B78BF"/>
<path d="M544.415 315.204C544.415 317.827 542.286 319.958 539.665 319.958C537.045 319.958 534.916 317.827 534.916 315.204C534.916 312.581 537.045 310.449 539.665 310.449C542.286 310.449 544.415 312.581 544.415 315.204Z" stroke="white" stroke-width="1.52" stroke-miterlimit="10"/>
<defs>
<linearGradient id="paint0_linear_125_2360" x1="314.15" y1="400.335" x2="129.753" y2="120.339" gradientUnits="userSpaceOnUse">
<stop stop-color="#498DC9"/>
<stop offset="1" stop-color="#64A3DC"/>
</linearGradient>
</defs>
</svg>
