<svg width="23" height="20" viewBox="0 0 23 20" fill="none" xmlns="http://www.w3.org/2000/svg">
<path d="M23 18.9947L19.1865 15.1823C19.8372 14.5004 20.783 13.1962 20.7736 11.333C20.7575 8.58656 18.671 6.94756 18.5831 6.87946L18.1717 6.56358L17.7461 6.85866C17.7262 6.8719 17.5928 6.96931 17.4122 7.12914C17.014 4.94917 15.3882 3.66955 15.3106 3.60902L14.8982 3.29314L14.4736 3.58822C14.4537 3.60335 14.3147 3.7036 14.1246 3.87384C13.7349 1.67494 12.0968 0.381141 12.0183 0.318721L11.6078 0L11.1841 0.295077C11.1169 0.34142 9.93181 1.18315 9.33217 2.75122C9.18084 2.5545 9.01532 2.35873 8.82427 2.17241C6.75958 0.145647 4.15294 0.624202 4.15388 0.624202L3.62518 0.714995L3.56275 1.24084C3.54951 1.3496 3.26483 3.95044 5.25102 5.90249C5.4137 6.06233 5.5811 6.20041 5.7504 6.33187C4.18226 6.93148 3.34144 8.11652 3.29509 8.18367L3 8.61021L3.31684 9.02067C3.37643 9.09916 4.67218 10.7353 6.87213 11.124C6.70188 11.3141 6.60163 11.4551 6.58649 11.4749L6.2914 11.8996L6.60825 12.31C6.66783 12.3895 7.94845 14.0152 10.1285 14.4143C9.96964 14.5921 9.87222 14.7264 9.85804 14.7491L9.56294 15.1757L9.87979 15.5861C9.94789 15.675 11.5879 17.7604 14.3345 17.7765H14.3591C16.2101 17.7765 17.5049 16.8364 18.1849 16.1876L21.9974 20L23 18.9947ZM18.1272 8.3993C18.6124 8.93082 19.3473 9.96359 19.3549 11.3378C19.3624 12.694 18.6711 13.6672 18.1944 14.177C17.7063 13.6265 16.9762 12.5682 16.9705 11.1808C16.9639 9.82645 17.6562 8.88258 18.1272 8.3993ZM14.8576 5.12981C15.3409 5.66132 16.0777 6.69315 16.0852 8.06828C16.0928 9.42261 15.4023 10.3939 14.9266 10.9056C14.4367 10.3485 13.7056 9.28548 13.7008 7.91034C13.6942 6.55696 14.3856 5.61404 14.8576 5.12981ZM11.5681 1.83572C12.0514 2.36156 12.7853 3.38961 12.7938 4.77798C12.8004 6.13326 12.1091 7.1055 11.6324 7.61716C11.1434 7.06483 10.4132 6.00653 10.4075 4.62099C10.4028 3.26477 11.097 2.31995 11.5681 1.83572ZM4.97295 2.00218C5.67568 2.02487 6.8551 2.22727 7.83117 3.18532C8.81387 4.14811 9.07585 5.37854 9.14206 6.10867C8.39204 6.06989 7.21167 5.83913 6.24506 4.88958C5.26142 3.92491 5.02213 2.7115 4.97295 2.00218ZM7.62026 7.40909C8.99451 7.41476 10.0585 8.14773 10.6147 8.63574C10.1049 9.10862 9.13828 9.79335 7.79712 9.79335V10.3003C7.79523 10.3022 7.79334 10.3022 7.79145 10.305L7.77726 9.79335C6.40206 9.78484 5.36924 9.05093 4.83959 8.56765C5.32479 8.0976 6.26776 7.40909 7.62026 7.40909ZM10.9126 10.6994C12.2869 10.7051 13.3509 11.4371 13.9061 11.9251C13.3982 12.3999 12.4306 13.0837 11.0885 13.0837V13.5565C11.0866 13.5584 11.0847 13.5584 11.0829 13.5603L11.0696 13.0837C9.69441 13.0761 8.66065 12.3393 8.13099 11.857C8.6143 11.386 9.55443 10.6994 10.9126 10.6994ZM14.3601 16.3531V17.0625L14.3412 16.3531C12.965 16.3456 11.9312 15.6107 11.4025 15.1265C11.8877 14.6574 12.8307 13.9698 14.1832 13.9698C15.5565 13.9736 16.6196 14.7066 17.1757 15.1946C16.6669 15.6675 15.6993 16.3531 14.3601 16.3531Z" fill="#1B1A1A"/>
</svg>
