<?xml version="1.0" encoding="utf-8"?>
<!-- Generator: Adobe Illustrator 16.0.4, SVG Export Plug-In . SVG Version: 6.00 Build 0)  -->
<!DOCTYPE svg PUBLIC "-//W3C//DTD SVG 1.1//EN" "http://www.w3.org/Graphics/SVG/1.1/DTD/svg11.dtd">
<svg version="1.1" id="Layer_1" xmlns="http://www.w3.org/2000/svg" xmlns:xlink="http://www.w3.org/1999/xlink" x="0px" y="0px"
	 width="27px" height="27px" viewBox="0 0 27 27" enable-background="new 0 0 27 27" xml:space="preserve">
<path fill="#1B1A1A" d="M23.248,15.803l-7.531-7.53c-0.082-0.084-2.037-2.055-4.476-2.378c-1.338-0.177-2.344-0.86-2.988-1.453
	C8.137,4.062,7.921,3.595,7.77,3.443C7.634,3.307,6.995,2.825,6.469,2.825c-0.128,0-0.314,0.044-0.426,0.106
	c-0.61,0.34-1.328,0.876-1.786,1.334c-0.45,0.45-0.982,1.164-1.345,1.817C2.565,6.81,3.437,7.756,3.438,7.756
	c0.152,0.156,0.617,0.379,0.99,0.5c0.594,0.644,1.279,1.652,1.458,2.994c0.323,2.438,2.295,4.394,2.372,4.472l7.536,7.535
	c0.609,0.609,1.27,0.918,1.961,0.918c1.204,0,2.207-0.904,3.211-1.908l1.289-1.289c0.7-0.701,1.411-1.453,1.73-2.285
	C24.383,17.662,24.135,16.688,23.248,15.803z M7.725,12.276c-0.162-0.385-0.295-0.795-0.353-1.224
	c-0.246-1.854-1.227-3.19-2.006-3.986C5.25,6.948,5.098,6.872,4.935,6.849c-0.1-0.03-0.33-0.127-0.461-0.191
	C4.447,6.619,4.417,6.571,4.391,6.523C4.662,6.089,5.02,5.625,5.317,5.326c0.305-0.305,0.795-0.681,1.207-0.939
	c0.047,0.026,0.094,0.055,0.131,0.078c0.062,0.133,0.153,0.364,0.183,0.464c0.02,0.168,0.097,0.326,0.22,0.446
	c0.797,0.779,2.135,1.76,3.985,2.005c1.92,0.255,3.587,1.926,3.607,1.946l1.287,1.286c-1.471,1.037-2.457,0.938-3.938,0.68
	C10.108,10.96,8.591,11.69,7.725,12.276z M22.587,18.153c-0.215,0.559-0.831,1.203-1.392,1.764l-1.288,1.287
	c-0.744,0.745-1.523,1.472-2.152,1.472h-0.001c-0.105,0-0.423-0.002-0.898-0.479l-7.541-7.541c-0.01-0.008-0.418-0.414-0.86-1.055
	c0.61-0.439,1.799-1.091,3.29-0.83c1.787,0.312,3.253,0.396,5.259-1.09l5.186,5.182C22.756,17.433,22.715,17.819,22.587,18.153z
	 M15.375,15.64c0,0.52-0.42,0.938-0.938,0.938c-0.521,0-0.939-0.421-0.939-0.938c0-0.519,0.42-0.938,0.939-0.938
	C14.955,14.699,15.375,15.12,15.375,15.64z M17.833,16.515c-0.354,0-0.644-0.289-0.644-0.644s0.289-0.644,0.644-0.644
	s0.642,0.287,0.642,0.644C18.475,16.226,18.188,16.515,17.833,16.515z M18.589,19.03c0,0.266-0.215,0.479-0.479,0.479
	c-0.266,0-0.479-0.214-0.479-0.479c0-0.266,0.217-0.479,0.479-0.479C18.374,18.551,18.589,18.767,18.589,19.03z"/>
</svg>
